<?xml version="1.0" standalone="no"?>
<!DOCTYPE svg PUBLIC "-//W3C//DTD SVG 20010904//EN"
 "http://www.w3.org/TR/2001/REC-SVG-20010904/DTD/svg10.dtd">
<svg version="1.0" xmlns="http://www.w3.org/2000/svg"
 width="1024.000000pt" height="1024.000000pt" viewBox="0 0 1024.000000 1024.000000"
 preserveAspectRatio="xMidYMid meet">
<metadata>
Created by potrace 1.14, written by Peter Selinger 2001-2017
</metadata>
<g transform="translate(0.000000,1024.000000) scale(0.100000,-0.100000)"
fill="#000000" stroke="none">
<path d="M3062 8573 c-26 -37 -75 -135 -101 -203 -65 -172 -168 -567 -187
-725 -3 -22 -7 -46 -10 -54 -2 -7 -7 -41 -10 -75 -6 -68 -12 -121 -14 -121 0
0 -2 -38 -5 -85 -2 -47 -7 -112 -10 -145 -7 -61 -8 -315 -1 -415 1 -30 8 -82
14 -115 7 -33 13 -86 14 -117 2 -39 6 -58 15 -58 17 0 17 -17 1 -24 -7 -3 1
-3 17 1 27 5 39 13 93 65 10 10 32 20 49 24 41 8 50 -17 23 -67 -11 -22 -15
-39 -10 -39 6 0 2 -12 -7 -27 -11 -17 -13 -24 -5 -19 11 7 12 4 3 -13 -7 -11
-17 -21 -22 -21 -7 0 -9 -10 -5 -24 3 -14 2 -28 -4 -31 -5 -3 -10 -17 -10 -31
0 -13 -5 -24 -10 -24 -6 0 -10 -6 -9 -12 4 -31 -2 -59 -11 -53 -6 4 -10 -10
-10 -35 0 -23 -3 -39 -8 -36 -4 2 -8 -14 -8 -36 -1 -22 -7 -44 -14 -48 -9 -6
-9 -9 -1 -15 9 -5 9 -10 1 -20 -5 -7 -11 -30 -13 -52 -1 -28 -6 -39 -14 -36
-15 6 -15 6 -4 -34 7 -24 6 -31 -3 -27 -12 5 -15 -9 -19 -91 -1 -22 -5 -45 -9
-51 -5 -7 -1 -14 8 -18 8 -3 12 -11 9 -16 -4 -6 -1 -18 7 -27 9 -12 9 -15 1
-9 -16 9 -16 -1 -2 -78 19 -109 41 -190 64 -236 12 -25 25 -58 29 -74 4 -15
10 -25 13 -22 4 4 15 -12 25 -34 11 -22 22 -38 27 -36 4 3 5 -8 3 -25 -3 -22
0 -29 12 -29 8 0 21 -10 27 -22 6 -12 20 -31 31 -42 11 -12 29 -37 41 -56 11
-19 31 -45 44 -57 13 -12 23 -26 23 -31 0 -5 7 -15 15 -22 8 -7 12 -17 8 -24
-3 -6 -3 -8 0 -5 4 3 33 -20 65 -50 31 -31 79 -75 105 -99 44 -40 61 -62 35
-46 -7 4 -8 3 -4 -5 4 -6 11 -9 15 -7 4 3 17 -4 29 -14 12 -11 26 -20 32 -20
5 0 10 -4 10 -10 0 -5 19 -19 42 -31 27 -14 37 -24 29 -29 -10 -5 -8 -9 4 -13
9 -4 13 -3 10 3 -10 16 3 12 51 -16 51 -30 59 -42 12 -18 -64 33 -16 -1 60
-41 86 -47 107 -74 93 -122 -6 -21 -5 -35 2 -42 8 -8 6 -11 -9 -11 -15 0 -16
-2 -4 -9 8 -6 19 -7 25 -3 5 3 3 -5 -6 -19 -14 -21 -15 -26 -2 -38 13 -12 14
-11 8 8 -4 12 -2 21 4 21 14 0 14 -33 0 -47 -8 -8 -6 -18 6 -37 10 -14 15 -26
12 -26 -10 0 -77 108 -96 156 l-19 49 -7 -30 c-4 -16 -10 -43 -14 -60 -4 -16
-4 -44 -1 -61 4 -17 6 -38 4 -47 -1 -9 1 -15 6 -12 4 2 10 -18 14 -45 4 -27
11 -52 17 -56 7 -4 4 -13 -7 -25 -9 -10 -12 -19 -6 -19 6 0 12 5 14 12 3 8 6
9 11 1 4 -6 -4 -22 -18 -37 -13 -14 -19 -26 -13 -26 10 0 8 -19 -8 -85 -3 -11
-7 -29 -9 -40 -2 -11 -7 -41 -13 -67 -5 -27 -6 -48 -1 -48 5 0 6 -7 3 -15 -4
-8 -9 -13 -13 -11 -3 2 -7 -13 -7 -34 -1 -21 -5 -51 -8 -66 -6 -22 -9 -25 -17
-13 -12 20 -11 37 2 19 7 -10 9 -11 7 -2 -7 25 -23 7 -21 -23 3 -49 -14 -8
-37 87 -11 46 -20 123 -21 171 -1 48 -5 90 -10 93 -5 3 -9 0 -9 -7 0 -15 -60
-169 -71 -185 -5 -6 -7 -20 -4 -33 2 -12 0 -19 -6 -16 -5 4 -9 -5 -9 -19 0
-13 -4 -26 -9 -28 -5 -1 -11 -19 -13 -38 -1 -19 -7 -38 -12 -42 -5 -3 -10 -18
-12 -31 -2 -20 1 -25 14 -20 13 4 12 2 -3 -10 -11 -9 -15 -17 -10 -17 6 0 3
-5 -5 -10 -8 -5 -15 -21 -15 -36 -1 -15 -7 -30 -14 -32 -9 -3 -11 0 -6 8 5 8
4 11 -2 7 -6 -4 -9 -18 -8 -31 2 -17 -1 -23 -10 -20 -9 4 -12 -1 -8 -14 2 -11
0 -23 -6 -26 -7 -5 -8 -1 -4 9 5 15 3 15 -16 3 -18 -11 -19 -15 -7 -24 12 -8
10 -14 -16 -35 -17 -13 -38 -32 -46 -41 -9 -9 -20 -14 -25 -11 -6 3 -7 1 -3
-6 4 -6 11 -9 16 -6 4 3 6 -4 3 -15 -3 -11 -12 -20 -20 -20 -8 0 -11 -5 -8
-10 4 -6 12 -7 18 -3 6 4 1 -6 -11 -22 -13 -16 -30 -30 -38 -31 -9 -1 -19 -6
-22 -10 -4 -4 1 -4 11 -1 11 4 17 1 17 -7 0 -9 -8 -13 -22 -10 -13 2 -17 2
-11 -2 15 -7 0 -41 -26 -61 -14 -11 -14 -12 -1 -13 8 0 -3 -11 -25 -25 -41
-25 -42 -34 -2 -14 l22 12 -22 -24 c-12 -13 -23 -31 -25 -38 -2 -8 -15 -25
-30 -38 -17 -16 -25 -31 -23 -45 3 -11 2 -18 -2 -15 -9 10 -40 -35 -46 -68
-12 -64 -12 -70 1 -67 8 1 11 -2 7 -8 -4 -7 -12 -7 -25 0 -16 8 -18 7 -14 -4
3 -8 0 -25 -7 -38 -15 -28 -21 -70 -8 -63 5 3 6 -1 3 -9 -3 -9 -11 -13 -16
-10 -7 5 -9 -4 -6 -24 2 -17 1 -29 -3 -27 -12 8 -17 -33 -5 -46 8 -9 8 -10 0
-6 -13 8 -19 -18 -38 -153 -1 -9 -5 -20 -9 -27 -4 -6 -4 -18 -1 -27 3 -9 1
-16 -4 -16 -6 0 -13 10 -15 23 -4 18 -4 17 -6 -6 -1 -38 44 -216 75 -291 53
-126 116 -236 193 -333 41 -53 48 -70 14 -34 -32 33 -48 33 -288 6 -27 -3 -68
-8 -90 -10 -22 -2 -101 -9 -175 -16 -102 -8 -138 -15 -147 -27 -8 -10 -13 -11
-13 -4 0 12 -29 10 -70 -5 -8 -3 -36 -7 -62 -9 -25 -2 -63 -10 -82 -18 -20 -8
-36 -11 -36 -7 0 9 -75 -4 -94 -17 -6 -3 -20 -8 -31 -9 -10 -2 -22 -7 -25 -12
-10 -16 -35 -17 -48 -2 -10 13 -12 13 -9 1 4 -18 -23 -51 -36 -43 -6 3 -7 1
-3 -5 3 -6 14 -11 24 -11 42 -2 72 -8 84 -18 7 -6 29 -13 48 -16 19 -4 60 -11
90 -16 30 -6 89 -15 130 -20 41 -6 131 -20 200 -31 69 -11 141 -22 160 -25 19
-2 67 -9 105 -16 69 -11 129 -19 275 -38 97 -12 211 -30 230 -36 13 -4 108
-13 575 -56 66 -6 174 -17 240 -24 119 -14 210 -21 610 -50 435 -32 546 -36
710 -25 200 13 244 19 272 36 19 12 69 13 270 10 287 -5 503 6 553 27 32 13
23 14 -120 9 -173 -5 -260 5 -337 40 -40 17 -53 28 -53 44 0 25 24 49 40 39 6
-4 20 1 30 10 17 15 17 20 4 57 -7 21 -17 68 -20 104 -5 49 -10 64 -23 64 -14
1 -14 2 2 11 9 5 17 15 17 22 0 8 -4 6 -11 -3 -9 -13 -10 -12 -5 3 3 9 9 24
13 34 3 9 2 14 -3 11 -10 -7 -5 110 7 142 1 3 1 9 0 14 -1 4 4 15 11 24 9 11
9 14 1 9 -9 -6 -11 2 -9 28 1 20 -2 35 -8 35 -8 0 -8 2 0 8 16 11 23 37 14 53
-6 8 -4 16 3 21 8 5 8 8 1 8 -7 0 -9 11 -6 25 2 14 9 25 14 25 7 0 7 4 0 13
-10 12 0 95 14 118 3 5 -2 22 -12 37 -15 24 -16 25 -1 13 15 -12 17 -11 17 11
0 14 3 28 7 31 3 4 8 60 10 125 6 213 16 296 34 308 5 3 9 11 9 18 0 8 11 39
25 70 14 31 25 58 24 61 0 3 19 34 43 68 24 34 50 75 58 92 8 16 69 83 135
149 72 71 98 102 65 75 -30 -24 -100 -89 -154 -144 -55 -55 -103 -100 -108
-100 -4 0 -8 -4 -7 -8 0 -5 -18 -24 -40 -44 -23 -19 -41 -44 -41 -54 0 -10 -5
-21 -12 -25 -7 -5 -8 -3 -3 7 14 24 -36 -24 -58 -56 l-21 -30 24 20 c21 18 20
15 -6 -22 -16 -23 -31 -40 -33 -37 -2 2 2 11 10 21 12 15 12 16 -1 8 -8 -5
-23 -20 -34 -33 -10 -13 -25 -21 -32 -18 -9 4 -14 -2 -14 -17 0 -18 -2 -19
-10 -7 -8 13 -10 12 -10 -3 0 -10 -6 -17 -12 -15 -17 6 -11 75 9 105 8 13 11
23 7 23 -5 0 -2 6 6 13 8 7 23 37 33 67 10 30 45 109 77 175 61 124 118 196
327 419 41 43 86 95 101 115 15 20 37 44 50 54 12 10 20 23 16 28 -3 5 1 12
10 15 8 3 27 24 43 47 15 23 33 47 39 52 56 50 135 223 147 323 7 60 0 48 -24
-39 -43 -156 -130 -281 -365 -530 -281 -297 -404 -460 -490 -649 -46 -103 -81
-160 -95 -160 -6 0 -9 7 -5 15 3 8 0 15 -6 15 -6 0 -6 6 3 16 11 13 9 23 -12
62 -13 26 -27 49 -31 50 -5 2 -8 15 -8 28 0 13 -3 24 -8 24 -4 0 -14 15 -22
33 -7 17 -17 37 -22 42 -4 6 -19 24 -33 41 -13 17 -22 34 -18 38 4 3 -1 14
-11 24 -9 9 -42 51 -72 92 -93 126 -98 133 -114 148 -8 9 -25 28 -36 44 -19
26 -111 126 -244 267 -22 24 -39 46 -36 48 3 3 -7 17 -22 32 -15 15 -28 34
-30 41 -2 8 -7 17 -11 20 -4 3 -7 23 -7 44 1 36 4 40 33 48 18 5 38 18 44 30
8 16 13 18 19 8 7 -11 13 -10 33 3 13 8 40 19 60 22 20 4 41 13 47 20 6 8 18
11 26 8 8 -3 14 0 14 7 0 7 7 10 17 6 9 -4 19 -2 23 4 3 5 23 11 43 12 20 2
37 8 37 15 0 12 17 12 36 0 6 -3 19 2 28 12 10 11 38 21 69 25 28 4 56 11 62
15 11 9 53 18 120 26 22 3 51 8 65 12 14 3 39 7 55 9 39 3 94 11 125 18 14 3
66 11 115 17 50 6 94 13 99 17 5 3 27 6 50 7 23 1 57 7 76 13 19 6 63 17 98
24 34 7 62 16 62 21 0 5 6 7 14 4 8 -3 20 1 26 8 7 8 16 13 20 10 4 -2 25 11
47 30 43 36 67 97 62 151 -4 33 8 57 22 49 5 -4 9 -1 9 5 0 6 4 9 8 6 5 -3 15
6 22 19 7 13 17 22 22 19 9 -6 62 35 66 51 1 6 7 11 12 11 6 1 15 2 20 3 6 0
10 7 10 15 0 8 12 17 26 20 19 5 25 12 21 26 -3 11 1 21 10 24 11 5 13 2 9
-11 -4 -10 -3 -14 1 -9 16 15 9 55 -10 60 -14 3 -17 10 -12 28 4 13 4 20 0 16
-5 -4 -13 -1 -20 8 -12 17 -83 25 -88 11 -4 -13 -157 -14 -157 -2 0 6 -4 4 -8
-3 -11 -16 -64 -12 -80 8 -11 13 -11 13 -6 -2 8 -22 -12 -23 -84 -4 -29 7 -52
9 -52 5 0 -15 -63 -10 -81 7 -14 12 -21 13 -36 4 -16 -10 -15 -10 7 -5 l25 5
-24 -12 c-21 -11 -26 -10 -38 9 -16 23 -53 21 -53 -4 0 -11 -5 -13 -17 -8 -10
5 -29 9 -43 10 -15 2 -24 8 -22 16 1 8 -5 5 -14 -6 -16 -20 -16 -20 -9 3 6 21
5 22 -13 11 -16 -10 -24 -10 -34 -1 -11 9 -17 9 -26 0 -17 -17 -15 -31 3 -24
8 3 15 0 15 -5 0 -7 -9 -9 -22 -5 -13 3 -31 6 -40 6 -10 0 -18 6 -18 14 0 8
-12 14 -32 14 -18 0 -37 1 -43 2 -5 1 -28 2 -50 3 -31 2 -40 6 -39 19 1 10 -4
14 -12 11 -17 -6 -18 -20 -1 -26 7 -2 8 -8 3 -13 -5 -5 -11 -4 -13 4 -3 6 -15
12 -28 12 -13 0 -27 5 -30 11 -4 6 -14 8 -22 4 -9 -3 -27 2 -41 11 -17 11 -38
15 -66 12 -25 -3 -46 0 -53 7 -6 7 -38 17 -72 24 -34 7 -61 17 -61 24 0 7 -16
13 -37 15 -20 1 -42 7 -48 12 -7 6 -21 8 -31 4 -18 -5 -18 -5 -1 6 9 6 22 8
27 5 6 -3 10 -1 10 5 0 8 -18 11 -54 8 -54 -3 -93 14 -60 26 8 3 12 1 9 -4 -3
-5 1 -7 9 -4 12 5 13 9 3 19 -7 7 -16 10 -21 7 -5 -3 -16 4 -24 14 -12 16 -14
16 -9 2 9 -27 -10 -31 -28 -6 l-17 23 7 -24 7 -24 -31 22 c-27 20 -37 21 -76
13 -25 -5 -45 -7 -45 -3 0 24 -115 59 -123 38 -2 -7 -8 -8 -13 -3 -5 5 -4 11
4 13 25 9 11 24 -20 21 -19 -2 -32 2 -34 10 -1 7 0 8 3 2 7 -14 20 -12 26 4 4
9 1 13 -6 10 -7 -2 -21 2 -32 10 -19 14 -19 15 -2 16 10 0 15 5 12 11 -4 6
-13 8 -20 5 -8 -3 -27 1 -42 9 -49 24 -88 38 -100 36 -18 -3 -27 20 -12 30 10
6 5 9 -16 9 -21 0 -26 3 -16 9 11 7 11 10 -1 17 -8 5 -17 17 -21 26 -3 9 -15
16 -26 15 -11 0 -18 -5 -15 -9 3 -4 12 -4 22 -1 13 5 14 3 5 -7 -9 -10 -16 -9
-34 4 -13 9 -20 16 -15 16 5 0 1 9 -9 20 -10 11 -15 20 -10 20 4 0 2 7 -5 15
-7 9 -19 14 -27 11 -8 -3 -11 -1 -8 4 4 6 -7 13 -24 16 -16 4 -32 12 -35 20
-3 8 -11 14 -18 14 -9 0 -8 -3 2 -10 8 -5 11 -10 5 -10 -5 0 -17 5 -25 10 -10
6 -11 10 -2 10 26 0 10 20 -32 40 -25 11 -48 20 -52 20 -14 0 -89 53 -129 92
-22 21 -60 54 -85 73 -24 18 -56 51 -70 72 -15 21 -34 37 -44 37 -13 -2 -14 1
-5 12 8 9 8 14 1 14 -6 0 -9 9 -7 20 2 12 0 18 -6 15 -9 -6 -36 46 -42 82 -2
10 -9 29 -16 43 -10 17 -11 25 -3 28 8 2 7 10 -3 25 -8 12 -15 39 -17 60 -1
28 -6 36 -16 32 -12 -4 -13 -3 -2 10 8 10 9 15 1 15 -7 0 -11 40 -11 128 0 75
4 121 9 113 6 -9 9 0 9 25 0 22 5 52 11 67 8 19 8 26 1 22 -13 -8 -2 43 13 65
9 12 9 13 -3 3 -23 -21 -35 -15 -15 7 10 11 15 20 10 20 -4 0 -2 7 5 15 6 8 8
20 4 26 -4 7 -3 9 3 6 15 -9 23 29 9 44 -8 9 -6 10 12 6 23 -6 24 -5 5 15 -18
20 -18 21 2 14 16 -5 21 -1 22 16 2 17 0 19 -7 9 -7 -12 -11 -11 -26 3 -12 13
-13 17 -3 16 28 -4 38 0 49 20 13 24 7 26 -14 5 -9 -9 -17 -11 -21 -5 -3 5 -2
10 4 10 12 0 9 24 -6 41 -12 16 8 43 23 31 5 -4 1 3 -10 15 -11 14 -15 29 -11
43 5 15 0 26 -17 40 l-23 19 23 -6 c12 -3 25 -9 28 -14 3 -5 11 -9 17 -9 7 0
6 4 -3 11 -12 8 -12 12 -2 16 10 4 10 8 1 19 -6 8 -16 14 -21 14 -6 0 -4 -7 3
-17 13 -15 12 -15 -9 -4 -15 8 -21 18 -18 28 4 9 1 22 -5 30 -7 7 -9 16 -5 20
3 3 6 1 6 -6 0 -7 5 -9 10 -6 6 3 10 22 10 41 0 19 4 34 9 34 13 0 21 27 14
46 -3 9 -15 20 -27 24 -17 7 -18 9 -3 9 9 1 17 8 17 17 0 11 -5 14 -17 10 -13
-5 -12 -1 6 17 21 23 21 26 6 35 -14 8 -15 13 -5 31 11 21 10 22 -12 16 l-23
-7 22 18 c20 17 20 20 6 57 -10 25 -12 41 -6 45 5 4 15 16 21 27 10 18 11 18
12 2 0 -10 5 -15 11 -12 6 4 8 14 4 23 -3 8 0 19 7 24 10 8 10 11 1 15 -19 7
-16 26 3 19 14 -6 15 -4 4 9 -7 9 -9 15 -4 14 5 -1 21 1 37 5 29 9 36 33 15
55 -10 11 -10 13 0 7 7 -5 12 -1 13 11 0 10 3 13 5 6 8 -18 42 18 35 37 -4 11
-1 11 13 -2 22 -22 27 -23 19 -1 -5 12 -3 14 7 8 10 -6 12 -4 7 9 -4 9 -3 15
1 12 5 -3 23 8 41 24 18 17 36 30 42 30 5 0 9 7 9 16 0 8 5 12 10 9 6 -3 10 4
10 16 0 12 3 19 7 16 9 -10 45 52 37 65 -4 7 -2 8 4 4 7 -4 12 -3 12 3 0 5 -4
12 -9 15 -4 3 -11 18 -14 33 -3 16 -14 37 -24 48 -10 11 -20 29 -21 40 -2 11
-10 24 -18 28 -8 4 -14 13 -14 18 0 17 -33 56 -138 163 -129 132 -318 273
-457 341 -105 51 -234 95 -282 95 -24 0 -52 -38 -35 -49 5 -3 15 -24 23 -46 8
-22 21 -53 31 -69 9 -16 14 -34 12 -41 -3 -7 -1 -16 4 -19 6 -3 8 -15 5 -26
-3 -11 -1 -20 4 -20 5 0 10 -6 11 -12 5 -67 9 -88 14 -94 4 -4 3 -15 -3 -25
-6 -12 -6 -19 0 -19 5 0 8 -9 6 -20 -2 -11 1 -22 7 -26 7 -5 7 -9 -1 -13 -7
-5 -6 -15 4 -34 8 -15 9 -27 4 -27 -6 0 -7 -5 -4 -10 4 -6 11 -7 17 -4 7 5 8
2 3 -7 -10 -15 -11 -46 -2 -69 3 -8 5 -28 5 -45 0 -16 2 -46 5 -65 3 -19 9
-80 13 -135 4 -55 9 -118 11 -140 14 -156 11 -301 -6 -291 -3 2 -12 -7 -18
-21 -11 -22 -10 -24 5 -18 9 3 -34 -46 -97 -109 -63 -63 -119 -112 -124 -109
-6 3 -7 1 -4 -4 4 -6 -1 -17 -10 -24 -12 -10 -15 -11 -9 -1 4 7 -7 4 -26 -8
-63 -38 -127 -20 -128 38 0 12 -5 22 -11 22 -5 0 -7 5 -4 10 4 6 2 16 -3 23
-10 12 -24 95 -27 157 -2 48 -17 294 -18 300 0 3 2 37 6 75 4 39 9 109 12 157
7 110 20 191 35 219 9 16 9 20 0 14 -9 -6 -9 -2 0 15 6 12 9 28 6 36 -3 8 -1
14 4 14 5 0 6 7 3 17 -4 9 -2 14 3 10 6 -3 9 6 9 21 -1 15 1 32 4 37 7 12 10
24 13 50 2 11 5 22 8 25 9 8 40 115 40 136 0 10 7 28 16 39 8 11 19 38 25 60
6 22 18 48 26 57 20 23 29 94 13 113 -18 22 -36 18 -58 -12z m803 -1553 c3 -6
-1 -7 -9 -4 -18 7 -21 14 -7 14 6 0 13 -4 16 -10z m-1128 -312 c-3 -8 -6 -5
-6 6 -1 11 2 17 5 13 3 -3 4 -12 1 -19z m4090 -2090 c-3 -8 -6 -5 -6 6 -1 11
2 17 5 13 3 -3 4 -12 1 -19z m-3176 -185 c13 -17 13 -17 -6 -3 -11 8 -22 16
-24 17 -2 2 0 3 6 3 6 0 17 -8 24 -17z m1011 -755 c12 -7 29 -19 36 -26 8 -7
21 -11 28 -8 8 3 14 0 14 -6 0 -6 3 -8 6 -5 8 8 131 -99 268 -232 96 -92 256
-276 256 -293 0 -4 35 -61 79 -125 43 -65 95 -149 116 -188 21 -38 41 -74 45
-80 17 -21 64 -114 96 -190 28 -66 34 -92 34 -151 0 -79 -18 -104 -39 -56 -7
14 -25 42 -40 61 -15 20 -40 59 -56 86 -15 28 -38 62 -49 76 -12 15 -29 39
-38 55 -10 16 -32 48 -50 71 -18 22 -53 67 -77 100 -25 32 -68 83 -96 113 -28
30 -59 67 -68 82 -21 34 -83 106 -185 216 -42 46 -80 89 -84 97 -14 23 -82 91
-100 97 -9 4 -24 22 -33 42 -9 19 -23 37 -31 40 -8 3 -14 12 -14 19 0 8 -7 20
-15 27 -13 11 -24 31 -68 127 -8 18 -6 27 8 43 21 23 28 24 57 8z m-292 -220
c0 -4 3 -7 8 -6 4 1 18 -4 30 -11 23 -12 191 -139 202 -151 3 -3 33 -27 68
-54 196 -149 515 -482 642 -670 71 -106 192 -339 245 -470 106 -265 187 -787
145 -937 -16 -56 -51 -102 -100 -129 -42 -23 -57 -25 -205 -28 -171 -4 -192 0
-254 47 -17 13 -31 30 -31 37 0 8 -5 14 -12 14 -6 0 -4 7 5 18 23 25 21 35 -5
26 -23 -6 -23 -6 1 15 16 14 19 21 10 21 -18 1 -63 70 -46 70 7 0 4 5 -6 11
-12 7 -16 17 -12 30 4 11 2 19 -5 19 -6 0 -8 -5 -5 -10 3 -6 2 -10 -4 -10 -5
0 -12 13 -16 30 -4 17 -11 30 -16 30 -5 0 -9 12 -9 26 0 14 -4 23 -9 19 -10
-5 -37 61 -33 81 1 6 -8 16 -20 22 -21 10 -22 11 -3 12 19 1 19 1 2 14 -10 8
-17 18 -15 22 1 5 -10 33 -25 62 -15 30 -27 60 -27 68 0 8 -4 14 -10 14 -5 0
-10 5 -10 11 0 6 9 8 23 3 18 -6 16 -1 -11 21 -23 19 -31 33 -27 46 4 11 2 19
-3 19 -5 0 -9 14 -9 30 0 17 -10 44 -22 60 -12 17 -17 30 -11 30 5 0 10 5 10
10 0 6 -7 10 -15 10 -13 0 -14 4 -4 21 9 17 7 25 -13 46 l-23 25 25 -7 c25 -7
25 -7 -3 15 -18 14 -26 28 -22 39 3 11 -3 25 -15 36 -11 10 -20 25 -20 34 0 9
-9 31 -21 50 -19 32 -19 34 -3 53 17 18 17 18 1 12 -10 -3 -17 -3 -16 2 4 15
-14 48 -32 61 -10 8 -15 21 -12 32 3 10 0 22 -6 25 -8 5 -8 13 -1 26 12 22 3
53 -13 43 -6 -3 -7 -1 -3 6 4 6 4 21 1 32 -5 15 -10 18 -15 9 -5 -8 -9 -5 -13
9 -3 12 -1 19 4 15 19 -11 8 36 -12 55 -12 11 -18 24 -15 29 3 6 -1 17 -9 25
-19 20 -19 31 -1 24 10 -4 13 -1 10 8 -3 7 -12 16 -20 19 -8 3 -14 11 -13 18
4 34 -2 58 -16 58 -9 0 -15 9 -15 25 0 14 -10 39 -21 54 -13 17 -18 34 -14 42
6 8 4 10 -5 4 -10 -6 -12 -4 -7 9 5 13 3 17 -6 13 -8 -3 -14 4 -15 19 -2 29
-38 110 -52 119 -14 9 -12 25 3 25 7 0 28 -8 47 -19 19 -10 46 -22 60 -26 43
-13 267 -157 378 -243 59 -45 176 -144 261 -220 199 -178 197 -176 197 -152 0
10 -6 16 -13 13 -8 -3 -13 2 -13 12 0 30 -261 305 -389 410 -27 22 -55 49 -61
60 -7 11 -64 63 -128 115 -64 52 -126 105 -139 117 -13 12 -23 20 -23 17 0 -8
-109 106 -145 151 -41 52 -55 65 -67 65 -6 0 -8 9 -5 21 7 27 -2 51 -16 42 -5
-3 -8 -2 -5 3 3 5 8 17 11 26 6 16 47 22 47 6z m1740 -691 c0 -2 -10 -12 -22
-23 l-23 -19 19 23 c18 21 26 27 26 19z m-3168 -49 c-7 -7 -12 -8 -12 -2 0 6
3 14 7 17 3 4 9 5 12 2 2 -3 -1 -11 -7 -17z m3088 -48 c0 -5 -5 -10 -11 -10
-5 0 -7 5 -4 10 3 6 8 10 11 10 2 0 4 -4 4 -10z m-2252 -59 c17 -7 32 -18 32
-24 0 -6 3 -8 6 -4 8 7 34 -17 34 -32 0 -6 4 -11 9 -11 11 0 97 -169 95 -187
-1 -7 2 -13 8 -13 5 0 7 -4 4 -8 -2 -4 4 -27 14 -50 11 -23 17 -49 13 -57 -3
-9 1 -23 8 -32 10 -11 14 -42 13 -97 -2 -65 -5 -83 -19 -91 -10 -5 -25 -18
-34 -27 -8 -10 -21 -18 -28 -18 -6 0 -18 8 -25 18 -7 9 -19 17 -25 18 -7 1
-23 2 -35 3 -19 1 -20 3 -8 11 8 5 11 10 6 10 -5 0 -3 7 4 15 10 12 10 15 -3
15 -8 0 -18 -6 -20 -12 -3 -7 -6 -3 -6 9 -1 12 3 23 7 25 5 2 5 14 1 28 -7 24
-7 24 -8 3 -1 -13 -9 -31 -19 -41 -17 -17 -21 -17 -38 -4 -18 13 -18 14 4 7
21 -6 23 -5 13 13 -8 15 -8 23 1 28 6 4 8 3 4 -4 -3 -6 -2 -13 3 -16 5 -3 11
1 15 9 3 8 1 15 -5 15 -6 0 -8 9 -4 20 4 11 2 20 -4 20 -6 0 -11 -7 -11 -16 0
-36 -20 1 -27 49 -5 42 -8 47 -13 27 l-6 -25 -8 23 c-4 13 -3 28 3 36 9 11 5
13 -16 10 -27 -3 -27 -2 -8 12 17 13 18 16 5 24 -10 7 -11 10 -2 10 8 0 11 11
10 30 -1 17 -7 30 -13 30 -6 0 -20 7 -31 15 -16 13 -16 14 -1 9 11 -4 17 -1
17 10 0 9 4 16 10 16 5 0 6 7 3 17 -4 11 -3 14 5 9 7 -4 12 -3 12 3 0 5 -5 11
-12 13 -6 2 -13 26 -15 54 -2 27 -4 58 -6 69 -1 14 4 20 18 20 11 0 21 8 23
18 2 10 7 16 10 14 4 -2 22 -9 40 -16z m1443 -118 c13 -16 12 -17 -3 -4 -17
13 -22 21 -14 21 2 0 10 -8 17 -17z m40 -30 c13 -16 12 -17 -3 -4 -10 7 -18
15 -18 17 0 8 8 3 21 -13z m-1571 -23 c0 -5 -5 -10 -11 -10 -5 0 -7 5 -4 10 3
6 8 10 11 10 2 0 4 -4 4 -10z m930 -20 c0 -5 -5 -10 -11 -10 -5 0 -7 5 -4 10
3 6 8 10 11 10 2 0 4 -4 4 -10z m-912 -95 c-3 -3 -9 2 -12 12 -6 14 -5 15 5 6
7 -7 10 -15 7 -18z m1067 -355 c-3 -5 -11 -10 -16 -10 -6 0 -7 5 -4 10 3 6 11
10 16 10 6 0 7 -4 4 -10z"/>
<path d="M6940 8210 c-49 -49 -90 -93 -90 -98 0 -7 33 -8 50 -2 3 1 8 2 13 1
4 0 7 6 7 14 0 17 35 21 45 5 10 -15 25 -12 32 8 4 9 19 28 33 42 33 32 55
106 33 114 -26 10 -31 7 -123 -84z"/>
<path d="M7102 8088 c2 -12 9 -24 17 -26 10 -3 12 0 8 12 -6 16 3 21 33 16 8
-1 12 1 9 5 -4 3 -21 8 -39 10 -27 4 -31 1 -28 -17z"/>
<path d="M6817 8072 c-10 -10 -17 -22 -17 -27 0 -4 9 2 20 15 11 13 20 25 20
27 0 7 -8 2 -23 -15z"/>
<path d="M7151 8054 c0 -11 3 -14 6 -6 3 7 2 16 -1 19 -3 4 -6 -2 -5 -13z"/>
<path d="M7106 8046 c10 -8 21 -12 24 -10 5 6 -21 24 -34 24 -6 0 -1 -6 10
-14z"/>
<path d="M7050 8030 c0 -5 5 -10 10 -10 6 0 10 5 10 10 0 6 -4 10 -10 10 -5 0
-10 -4 -10 -10z"/>
<path d="M7177 8003 c-3 -15 -1 -36 4 -45 7 -13 6 -18 -3 -18 -9 0 -9 -3 2
-10 18 -12 40 -14 25 -2 -16 11 -17 34 -3 44 11 6 10 10 -1 17 -16 10 -5 35
11 25 7 -4 8 -2 4 4 -13 21 -34 13 -39 -15z"/>
<path d="M7064 7995 c2 -7 2 -16 -2 -20 -4 -4 -7 -17 -7 -30 -1 -18 2 -21 11
-14 9 7 16 4 24 -10 8 -16 15 -19 28 -12 9 4 22 6 28 4 17 -6 28 48 12 59 -10
6 -10 10 2 17 20 13 6 25 -16 13 -9 -5 -32 -6 -51 -2 -27 6 -33 5 -29 -5z m47
-52 c13 -16 12 -17 -3 -4 -10 7 -18 15 -18 17 0 8 8 3 21 -13z"/>
<path d="M5808 7903 c7 -3 16 -2 19 1 4 3 -2 6 -13 5 -11 0 -14 -3 -6 -6z"/>
<path d="M7070 7900 c0 -5 5 -10 11 -10 8 0 9 -4 0 -13 -8 -11 -5 -16 15 -25
31 -15 57 -15 49 -1 -4 6 -14 8 -22 5 -8 -3 -11 -1 -8 4 4 6 -1 7 -12 3 -15
-6 -16 -5 -3 9 14 15 17 15 33 0 18 -16 90 -24 80 -9 -3 4 -17 7 -31 5 -19 -2
-27 2 -27 12 0 22 -16 30 -36 19 -11 -6 -20 -5 -24 1 -8 13 -25 13 -25 0z"/>
<path d="M7150 7814 c0 -8 5 -12 10 -9 6 3 10 10 10 16 0 5 -4 9 -10 9 -5 0
-10 -7 -10 -16z"/>
<path d="M7090 7813 c0 -5 7 -16 14 -26 12 -16 14 -16 20 -1 10 26 7 34 -14
34 -11 0 -20 -3 -20 -7z"/>
<path d="M7168 7789 c-16 -17 -16 -18 2 -16 10 1 17 4 14 8 -2 4 1 9 8 11 7 3
8 7 3 10 -6 2 -18 -3 -27 -13z"/>
<path d="M7070 7771 c0 -6 4 -13 10 -16 6 -3 7 1 4 9 -7 18 -14 21 -14 7z"/>
<path d="M3850 7300 c0 -5 5 -10 10 -10 6 0 10 5 10 10 0 6 -4 10 -10 10 -5 0
-10 -4 -10 -10z"/>
<path d="M3867 7103 c9 -3 10 -10 3 -23 -12 -22 5 -39 22 -22 12 12 -7 52 -25
51 -9 0 -9 -2 0 -6z m23 -33 c0 -5 -5 -10 -11 -10 -5 0 -7 5 -4 10 3 6 8 10
11 10 2 0 4 -4 4 -10z"/>
<path d="M3863 6954 c2 -25 6 -30 21 -26 16 4 17 7 4 16 -8 6 -17 18 -20 26
-4 8 -5 1 -5 -16z"/>
<path d="M3850 6900 c0 -13 11 -13 30 0 12 8 11 10 -7 10 -13 0 -23 -4 -23
-10z"/>
<path d="M4565 6814 c-98 -12 -225 -48 -225 -65 0 -5 -6 -9 -14 -9 -8 0 -38
-21 -66 -47 -29 -27 -59 -52 -66 -56 -8 -4 -14 -15 -14 -22 0 -8 -4 -15 -10
-15 -5 0 -10 -4 -10 -10 0 -5 -15 -33 -33 -62 -36 -57 -64 -124 -62 -148 0 -8
-2 -17 -5 -20 -3 -3 -14 -36 -24 -75 -24 -90 -33 -269 -16 -342 16 -73 81
-184 146 -249 60 -59 199 -134 299 -159 95 -25 225 -20 326 11 46 14 94 27
106 27 12 1 21 6 20 10 -1 5 21 17 48 28 116 44 235 180 279 319 38 117 46
272 20 385 -10 44 -18 83 -19 86 -1 16 -50 109 -57 109 -4 0 -8 5 -8 11 0 7
-8 18 -17 25 -17 13 -17 14 2 8 13 -4 8 3 -12 18 -18 14 -31 27 -28 30 6 6
-80 88 -92 88 -5 0 -16 9 -26 20 -9 11 -24 20 -32 20 -8 0 -15 4 -15 8 0 10
-103 54 -166 71 -38 10 -159 13 -229 5z m406 -255 c40 -20 104 -87 121 -127 7
-15 14 -66 17 -114 6 -79 4 -87 -14 -99 -11 -7 -32 -13 -48 -14 l-28 -2 31 32
c16 17 30 35 30 39 0 5 -9 -3 -20 -17 -62 -78 -219 -48 -266 51 -25 53 -30
124 -10 162 8 18 14 36 11 40 -3 4 14 24 36 43 45 40 70 41 140 6z"/>
<path d="M4868 6553 c6 -2 18 -2 25 0 6 3 1 5 -13 5 -14 0 -19 -2 -12 -5z"/>
<path d="M4814 6528 l-19 -21 28 18 c28 18 33 25 19 25 -5 0 -17 -10 -28 -22z"/>
<path d="M5008 6515 c40 -33 71 -92 82 -154 7 -44 8 -45 9 -10 2 63 -50 154
-103 180 -11 6 -6 -1 12 -16z"/>
<path d="M3860 6765 c0 -8 4 -15 10 -15 5 0 7 7 4 15 -4 8 -8 15 -10 15 -2 0
-4 -7 -4 -15z"/>
<path d="M6692 6760 c-45 -10 -135 -50 -127 -58 2 -2 -18 -21 -44 -42 -89 -71
-143 -159 -177 -290 -21 -81 -15 -323 10 -415 45 -168 179 -338 301 -385 68
-25 165 -30 231 -12 58 17 142 75 189 132 22 27 47 51 56 53 51 13 119 234
119 382 0 61 -20 188 -41 260 -23 82 -81 179 -144 242 -111 111 -247 159 -373
133z m168 -86 c23 -9 37 -21 33 -27 -3 -6 -1 -7 6 -3 36 23 173 -119 231 -237
64 -134 87 -330 50 -442 -7 -23 -8 -19 -2 20 19 137 -11 360 -47 348 -13 -4
-13 -3 -2 5 9 6 10 12 3 16 -6 4 -9 13 -6 20 3 8 -4 21 -16 29 -15 11 -18 16
-8 20 7 3 3 6 -9 6 -12 1 -23 6 -25 13 -3 7 -5 -17 -6 -52 -1 -48 -7 -69 -22
-85 -11 -12 -20 -26 -20 -32 0 -11 -92 -62 -123 -69 -10 -2 -28 -6 -40 -10
-12 -3 -3 6 19 21 46 31 94 98 94 130 -1 12 -6 5 -15 -19 -8 -22 -28 -53 -45
-70 -27 -27 -37 -31 -88 -31 -60 0 -105 22 -118 58 -3 10 -15 27 -27 37 -11
11 -17 20 -11 20 5 0 3 4 -4 9 -18 11 -27 112 -13 142 l12 24 -20 -23 c-42
-49 -44 -139 -5 -200 8 -12 12 -28 8 -34 -4 -6 -3 -9 2 -6 5 3 17 -5 27 -18
10 -13 15 -24 12 -24 -11 0 -65 34 -65 41 0 4 -13 12 -29 19 -16 6 -32 18 -35
26 -3 8 -12 14 -21 14 -13 0 -19 12 -16 33 0 4 -3 7 -8 7 -16 0 -23 51 -9 68
11 13 11 14 0 8 -20 -12 -13 71 9 116 42 84 102 124 198 132 35 2 65 7 69 10
10 10 40 6 82 -10z m-135 -472 c-3 -3 -11 0 -18 7 -9 10 -8 11 6 5 10 -3 15
-9 12 -12z"/>
<path d="M3890 6709 c0 -6 -7 -9 -15 -5 -8 3 -15 2 -15 -3 0 -5 9 -11 20 -14
15 -4 20 0 20 14 0 10 -2 19 -5 19 -3 0 -5 -5 -5 -11z"/>
<path d="M5709 5927 c-67 -45 -97 -137 -64 -195 8 -15 21 -44 29 -64 14 -36
14 -38 -11 -58 -51 -40 -103 -21 -147 54 -35 60 -62 68 -98 27 -54 -60 -23
-155 71 -218 62 -42 154 -23 233 46 l36 32 7 -30 c12 -55 71 -81 148 -67 51
10 147 76 147 101 0 23 70 95 71 73 0 -7 5 0 11 15 8 21 6 33 -6 52 -28 43
-60 33 -112 -34 -27 -35 -60 -65 -83 -76 -36 -16 -40 -16 -70 0 -30 15 -61 65
-61 97 0 7 19 27 41 43 51 38 72 77 64 117 -5 21 -10 27 -18 19 -13 -13 -34
-2 -80 43 -34 33 -35 35 -14 39 12 2 4 5 -19 6 -28 1 -52 -6 -75 -22z m-225
-235 c3 -5 -1 -9 -9 -9 -8 0 -12 4 -9 9 3 4 7 8 9 8 2 0 6 -4 9 -8z m23 -74
c-3 -7 -5 -2 -5 12 0 14 2 19 5 13 2 -7 2 -19 0 -25z m228 -57 c-3 -6 -11 -11
-16 -11 -5 0 -4 6 3 14 14 16 24 13 13 -3z"/>
<path d="M4678 5073 c7 -3 16 -2 19 1 4 3 -2 6 -13 5 -11 0 -14 -3 -6 -6z"/>
<path d="M5575 4760 c-3 -5 1 -10 10 -10 9 0 13 5 10 10 -3 6 -8 10 -10 10 -2
0 -7 -4 -10 -10z"/>
<path d="M5610 4740 c0 -5 5 -10 10 -10 6 0 10 5 10 10 0 6 -4 10 -10 10 -5 0
-10 -4 -10 -10z"/>
<path d="M3245 4670 c10 -11 20 -20 23 -20 3 0 -3 9 -13 20 -10 11 -20 20 -23
20 -3 0 3 -9 13 -20z"/>
<path d="M6951 2924 c0 -11 3 -14 6 -6 3 7 2 16 -1 19 -3 4 -6 -2 -5 -13z"/>
<path d="M6942 2830 c0 -14 2 -19 5 -12 2 6 2 18 0 25 -3 6 -5 1 -5 -13z"/>
<path d="M6930 2773 c0 -32 -30 -206 -59 -343 -11 -52 -31 -158 -46 -235 -14
-77 -35 -174 -46 -217 -30 -120 -30 -120 50 -152 71 -28 76 -31 155 -104 36
-34 49 -53 55 -87 18 -97 -31 -244 -121 -361 -52 -69 -78 -78 -220 -79 -100 0
-118 -2 -127 -17 -10 -16 -6 -18 46 -18 98 1 193 19 257 50 87 43 148 80 193
118 l38 33 -33 -16 c-28 -14 -33 -14 -38 -1 -3 8 -3 20 1 27 4 6 2 15 -4 19
-10 5 -9 11 2 21 8 8 20 32 27 54 7 22 19 48 28 57 8 10 19 37 24 60 21 100
21 125 0 183 -12 32 -19 62 -16 67 6 9 -53 82 -68 84 -4 1 -14 2 -20 3 -9 1
-8 4 2 11 13 8 12 10 -3 10 -9 0 -25 4 -35 10 -9 5 -34 17 -54 26 -21 9 -38
20 -38 24 0 5 -9 6 -20 3 -12 -3 -20 -2 -19 3 5 26 -3 36 -12 15 -5 -13 -12
-22 -14 -19 -5 5 34 250 60 378 46 222 76 420 63 420 -4 0 -8 -12 -8 -27z"/>
<path d="M2762 2245 c0 -16 2 -22 5 -12 2 9 2 23 0 30 -3 6 -5 -1 -5 -18z"/>
</g>
</svg>
